<svg width="272" height="272" version="1.1" xmlns="http://www.w3.org/2000/svg" desc="Created with imagetracer.js version 1.2.6" ><path fill="rgb(38,251,166)" stroke="rgb(38,251,166)" stroke-width="1" opacity="1" d="M 50.5 31 L 186 31.5 L 179 44.5 L 176 61.5 L 178 71.5 L 157.5 95 Q 155.3 94.3 156 96.5 L 153 101 Q 150.3 99.9 151 102.5 L 136.5 118 Q 134.3 117.3 135 119.5 L 121.5 135 Q 119.3 134.3 120 136.5 L 117 138 L 115.5 141 L 107 133.5 L 104 128 L 102.5 128 L 93 118.5 Q 93.8 116.3 91.5 117 L 80.5 105 L 68.5 117 L 67 117 L 75 129 L 76.5 129 L 90 142.5 L 97.5 152 L 107 160.5 Q 106.3 162.8 108.5 162 L 112 168 L 115.5 170 L 126.5 158 L 129 156.5 L 131.5 153 Q 134.1 153.8 133 150.5 L 155.5 126 Q 157.8 126.8 157 124.5 L 167.5 113 Q 169.8 113.8 169 111.5 L 181.5 98 Q 183.8 98.8 183 96.5 Q 183.5 92.5 188.5 93 L 191 96.5 L 191 209 L 123.5 209 L 76.5 244 L 75 243.5 L 73.5 246 L 71 243.5 L 71 214.5 L 71 210.5 L 70.5 209 L 48.5 209 Q 35.8 205.7 29 196.5 L 25 189.5 L 23 179.5 L 23 62.5 L 24 60.5 L 23 58.5 L 25 50.5 L 28.5 45 Q 31.1 45.8 30 42.5 Q 36.8 33.3 50.5 31 Z " /><path fill="rgb(38,251,166)" stroke="rgb(38,251,166)" stroke-width="1" opacity="1" d="M 218.5 32 L 234.5 33 Q 242.3 36.3 247 42.5 L 253 54.5 L 253 67.5 L 248 79 L 242 83.5 Q 242.8 85.8 240.5 85 Q 234 92 218.5 90 L 210.5 87 L 202 79.5 L 196 67.5 L 196 54.5 L 203.5 41 Q 205.8 41.8 205 39.5 Q 209.9 33.9 218.5 32 Z " /><path fill="rgb(0,0,0)" stroke="rgb(0,0,0)" stroke-width="1" opacity="0" d="M 0 0 L 272 0 L 272 272 L 0 272 L 0 0 Z M 51 31 Q 37 33 30 43 Q 31 46 29 45 L 25 51 L 23 59 L 24 61 L 23 63 L 23 180 L 25 190 L 29 197 Q 36 206 49 209 L 71 209 L 71 211 L 71 215 L 71 244 L 74 246 L 75 244 L 77 244 L 124 209 L 192 209 L 193 210 L 210 206 Q 221 201 230 193 L 233 191 L 246 174 L 252 157 Q 251 152 253 151 L 253 102 L 242 107 L 229 110 L 216 109 L 207 106 Q 198 103 193 96 L 190 96 L 189 93 Q 183 93 183 97 Q 184 99 182 98 L 169 112 Q 170 114 168 113 L 157 125 Q 158 127 156 126 L 133 151 Q 134 154 132 153 L 129 157 L 127 158 L 116 170 L 112 168 L 109 162 Q 106 163 107 161 L 98 152 L 90 143 L 77 129 L 75 129 L 67 117 L 69 117 L 81 105 L 92 117 Q 94 116 93 119 L 103 128 L 104 128 L 107 134 L 116 141 L 117 138 L 120 137 Q 119 134 122 135 L 135 120 Q 134 117 137 118 L 151 103 Q 150 100 153 101 L 156 97 Q 155 94 158 95 L 178 72 L 176 62 L 179 45 L 186 32 L 51 31 Z M 219 32 Q 210 34 205 40 Q 206 42 204 41 L 196 55 L 196 68 L 202 80 L 211 87 L 219 90 Q 234 92 241 85 Q 243 86 242 84 L 248 79 L 253 68 L 253 55 L 247 43 Q 242 36 235 33 L 219 32 Z " /><path fill="rgb(5,9,66)" stroke="rgb(5,9,66)" stroke-width="1" opacity="0.996078431372549" d="M 191 96 L 206.5 106 L 215.5 109 L 228.5 110 L 241.5 107 L 253 102 L 253 150.5 Q 250.7 151.8 252 156.5 L 246 173.5 L 232.5 191 L 229.5 193 Q 221.3 201.3 209.5 206 L 192.5 210 L 191 208.5 L 191 96 Z " /></svg>